<svg width="73" height="75" viewBox="0 0 73 75" fill="none" xmlns="http://www.w3.org/2000/svg">
<rect x="0.0147705" y="0.900024" width="72.3382" height="73.958" rx="16" fill="#F09E54"/>
<g clip-path="url(#clip0_207_26)">
<path d="M56.1747 38.4122C56.1747 49.0521 47.3322 57.6753 36.4219 57.6753C25.5115 57.6753 16.669 49.0521 16.669 38.4122C16.669 27.7724 25.5115 19.1492 36.4219 19.1492C47.3322 19.1492 56.1747 27.7724 56.1747 38.4122ZM42.8956 47.2386C41.6533 45.8917 39.4851 44.4319 36.4219 44.4319C33.3586 44.4319 31.1904 45.8917 29.9482 47.2386C29.4929 47.7353 29.5315 48.4275 30.0408 48.9392C30.55 49.3832 31.2599 49.3455 31.7846 48.8489C32.6873 47.8707 34.2228 46.8398 36.3524 46.8398C38.6209 46.8398 40.1564 47.8707 41.0592 48.8489C41.5144 49.3455 42.2937 49.3832 42.803 48.9392C43.3122 48.4275 43.3508 47.7353 42.8956 47.2386ZM30.28 39.6162C31.638 39.6162 32.7491 38.5402 32.7491 37.2083C32.7491 37.0954 32.7414 36.9826 32.7259 36.8772L33.5592 37.1481C34.2074 37.2911 34.9095 37.0127 35.1256 36.3881C35.2722 35.756 34.9867 35.0713 34.3463 34.8606L26.939 32.4527C26.2908 32.242 25.5887 32.5882 25.3726 33.2127C25.1566 33.8448 25.5115 34.5295 26.1519 34.7402L28.5284 35.5077C28.0809 35.9442 27.8109 36.5461 27.8109 37.2083C27.8109 38.5402 28.9142 39.6162 30.28 39.6162ZM44.3616 35.4927L46.6918 34.7402C47.3322 34.5295 47.6177 33.8448 47.4711 33.2127C47.2551 32.5882 46.5529 32.242 45.9048 32.4527L38.4975 34.8606C37.857 35.0713 37.5021 35.756 37.7181 36.3881C37.9342 37.0127 38.6363 37.2911 39.2845 37.1481L40.1795 36.8546C40.1641 36.9675 40.1564 37.0879 40.1564 37.2083C40.1564 38.5402 41.2598 39.6162 42.6255 39.6162C43.9835 39.6162 45.0946 38.5402 45.0946 37.2083C45.0946 36.5386 44.8091 35.9291 44.3616 35.4927Z" fill="white"/>
</g>
<defs>
<clipPath id="clip0_207_26">
<rect width="39.5057" height="38.5261" fill="white" transform="translate(16.669 19.1492)"/>
</clipPath>
</defs>
</svg>
