<svg width="73" height="74" viewBox="0 0 73 74" fill="none" xmlns="http://www.w3.org/2000/svg">
<rect x="0.338257" width="72.3382" height="73.8841" rx="16" fill="#AEAFF7"/>
<path d="M57.4674 36.1168C57.444 35.9117 57.4206 35.6952 57.3855 35.49C57.327 35.0342 57.2802 34.567 57.2101 34.0997C56.7305 30.7948 55.4788 27.7635 53.5136 25.1082C51.8292 22.8176 49.6885 20.96 47.1736 19.5925C44.8926 18.3503 42.3776 17.5754 39.6872 17.2791C38.9151 17.1879 38.1197 17.1423 37.3476 17.1423C35.979 17.1423 34.6221 17.2791 33.2652 17.5526V17.5412L33.0663 17.5982C32.7505 17.6666 32.4464 17.7349 32.1305 17.8147C31.7328 17.9173 31.3234 18.0426 30.9257 18.168C30.5631 18.2705 30.2589 18.3617 29.9665 18.4643C26.7965 19.5697 24.0358 21.4273 21.7548 23.9914C19.4738 26.5441 17.9297 29.4957 17.146 32.7436C16.5962 35.0342 16.4558 37.3248 16.7132 39.5584C16.9822 41.8377 17.5788 43.9687 18.4912 45.8833C19.4855 47.9574 20.8424 49.8035 22.5152 51.3648C24.3868 53.1084 26.5859 54.4645 29.2412 55.513C30.3993 55.9688 31.534 56.1853 32.5867 56.3449C33.1365 56.4589 33.7097 56.55 34.2712 56.6184C34.47 56.6412 34.6572 56.664 34.8561 56.6868C35.4643 56.7893 36.2364 56.8349 37.1605 56.8349C37.5348 56.8349 37.8974 56.8235 38.2367 56.8121L37.9559 56.9261L39.1725 56.7665C39.6871 56.7324 40.0966 56.6754 40.3071 56.6412L40.3656 56.6298C40.4007 56.6184 40.4241 56.607 40.4475 56.5956C41.9916 56.3791 43.4771 56.0258 44.8575 55.5244C46.694 54.852 48.4018 53.9517 49.9108 52.8235C51.7122 51.4788 53.2446 49.8491 54.4377 47.9574C55.6309 46.0884 56.4497 44.1055 56.8825 42.0428C57.0229 41.359 57.1282 40.6639 57.2218 39.9801C57.2686 39.661 57.3153 39.3533 57.3621 39.0342C57.3738 38.9772 57.3855 38.9089 57.3972 38.8519L57.4206 38.7493L57.4323 36.1852L57.4674 36.1168ZM41.4184 23.2278C42.9391 23.2278 44.2024 24.47 44.1907 25.9287C44.179 27.3874 42.9157 28.6296 41.4184 28.6296C39.9211 28.6296 38.6578 27.3874 38.6578 25.9287C38.6695 24.47 39.9328 23.2278 41.4184 23.2278ZM44.4948 52.5728C43.4421 54.134 42.0384 55.2737 40.3422 55.9688C39.9679 56.0144 39.5819 56.06 39.1958 56.0942C37.8389 56.2081 36.4352 56.1967 34.9964 56.0486C34.4934 55.9574 34.0021 55.889 33.5225 55.8207C33.2652 55.7865 33.0078 55.7523 32.7505 55.7067C31.2766 55.4104 29.8495 54.9546 28.5043 54.362C27.0304 53.7124 25.6618 52.8919 24.4336 51.9346C23.3106 51.0571 22.3046 50.077 21.439 49.0058C20.3979 47.718 19.5323 46.3049 18.8772 44.7893C18.269 43.3647 17.8595 42.0086 17.6256 40.6183C17.5437 40.0941 17.4735 39.547 17.4033 39.0114C17.3682 38.7721 17.3448 38.5328 17.3098 38.2935V36.037C17.3098 36.0257 17.3097 36.0257 17.3214 36.0143C17.3331 35.9573 17.3565 35.8889 17.3565 35.8091C17.4852 34.2593 17.7893 32.7436 18.2572 31.3305C18.8655 29.4957 19.7428 27.7635 20.8892 26.1794C22.2695 24.2649 23.9891 22.6011 25.9893 21.2449C27.6036 20.1509 29.3348 19.3076 31.1479 18.715C31.4521 18.6238 31.7679 18.5441 32.0838 18.4643C32.2358 18.4187 32.3996 18.3845 32.5517 18.3389C32.5049 18.6694 32.4698 18.9885 32.423 19.3076C32.2826 20.3332 32.1539 21.3133 32.0487 22.2934C31.8498 23.9914 31.686 26.0199 31.9317 28.094C32.1422 29.8946 32.6452 31.3874 33.4524 32.6752C34.2244 33.906 35.1836 34.9544 36.3183 35.7749C37.4529 36.6069 38.6344 37.416 39.8392 38.1567C40.2252 38.396 40.6346 38.567 41.0441 38.7379C41.3248 38.8519 41.5939 38.9658 41.8512 39.1026C43.5356 39.9687 44.7522 41.0057 45.571 42.2821C46.308 43.4331 46.6589 44.7437 46.6121 46.1682C46.5068 48.493 45.805 50.6354 44.4948 52.5728Z" fill="white"/>
<path d="M32.9633 42.201H32.9165C31.0449 42.201 29.5827 43.5914 29.5243 45.4489C29.4775 47.2495 30.9748 48.7538 32.8698 48.7994C32.8931 48.7994 32.9282 48.7994 32.9633 48.7994C34.7765 48.7994 36.2737 47.3293 36.3088 45.5173C36.3205 44.6512 35.9813 43.8193 35.3496 43.1925C34.718 42.5657 33.8757 42.2124 32.9633 42.201Z" fill="white"/>
</svg>
