<svg width="73" height="74" viewBox="0 0 73 74" fill="none" xmlns="http://www.w3.org/2000/svg">
<rect width="72.3382" height="73.8841" rx="16" fill="#EF5DA8"/>
<g clip-path="url(#clip0_207_11)">
<path d="M15.5944 36.9684C15.5944 26.0605 24.6706 17.2181 35.867 17.2181C47.0634 17.2181 56.1397 26.0605 56.1397 36.9684C56.1397 47.8763 47.0634 56.7186 35.867 56.7186C24.6706 56.7186 15.5944 47.8763 15.5944 36.9684Z" fill="white"/>
<path d="M29.896 32.1765C29.896 33.5317 29.2273 34.6298 28.4024 34.6298C27.5775 34.6298 26.9081 33.5317 26.9081 32.1765C26.9081 30.8213 27.5775 29.7239 28.4024 29.7239C29.2273 29.7239 29.896 30.822 29.896 32.1765Z" fill="#EF5DA8"/>
<path d="M44.8299 32.1765C44.8299 33.5317 44.1605 34.6298 43.3356 34.6298C42.5107 34.6298 41.842 33.5317 41.842 32.1765C41.842 30.8213 42.5107 29.7239 43.3356 29.7239C44.1605 29.7239 44.8299 30.822 44.8299 32.1765Z" fill="#EF5DA8"/>
<path d="M22.2447 38.8357C23.0173 45.5012 28.8197 50.6815 35.8672 50.6815C42.9147 50.6815 48.7171 45.5012 49.4897 38.8357H22.2447Z" fill="#EF5DA8"/>
</g>
<defs>
<clipPath id="clip0_207_11">
<rect width="40.5453" height="39.5005" fill="white" transform="translate(15.5944 17.2181)"/>
</clipPath>
</defs>
</svg>
