<svg width="74" height="75" viewBox="0 0 74 75" fill="none" xmlns="http://www.w3.org/2000/svg">
<rect x="0.676514" y="0.900024" width="72.3382" height="73.958" rx="16" fill="#CDA0E3"/>
<path d="M52.098 40.363C50.9486 39.7969 49.6714 39.5025 48.4175 39.5025C45.689 39.5025 43.3902 40.8839 42.4149 43.1031C41.637 44.8694 41.7415 47.5529 42.6587 49.1946C43.2508 50.259 44.5861 51.3912 46.5831 51.3912C46.9778 51.3912 47.3842 51.3459 47.7905 51.2667C48.8935 51.0402 50.4493 49.4324 50.8209 48.153C51.0995 47.1905 50.0314 45.5488 48.9284 44.7788C48.8471 44.7222 48.7542 44.7222 48.6846 44.7222C48.5452 44.7222 47.8486 44.7449 47.5119 45.1638C47.3958 45.2997 47.2681 45.5488 47.3493 45.9111L47.3726 46.0017L47.4422 46.0583C48.1505 46.7263 48.522 47.5302 48.3711 48.0624C48.2666 48.4247 47.9415 48.6738 47.3958 48.8097C46.8733 48.7191 46.1302 48.2888 45.8748 47.9831C45.3988 47.4057 44.9692 45.9903 45.1666 45.2204C45.5149 43.8617 46.9314 42.9106 48.6265 42.9106C49.7992 42.9106 50.8441 43.3975 51.4943 44.2467C52.5624 45.6507 53.3287 48.3228 52.7018 49.6475C51.9239 51.312 49.7527 53.0443 47.6512 53.6784C47.1171 53.8369 46.5714 53.9162 46.049 53.9162C44.0055 53.9162 42.0085 52.682 40.4411 50.4514C38.5486 47.768 38.4441 44.9487 40.1276 42.2765C40.8359 41.1669 41.8112 40.1705 42.7632 39.2081C43.216 38.7552 43.6804 38.291 44.11 37.8154C47.0475 34.5659 47.7557 30.8181 46.2347 26.6627C44.9344 23.0961 42.0666 20.9108 37.9449 20.3221C37.5617 20.2654 37.1786 20.2428 36.7954 20.2428C33.1613 20.2428 29.6898 22.53 28.3546 25.7909C26.9962 29.1084 28.0527 32.7316 30.9786 34.815C32.0932 35.6075 33.5329 36.0378 35.019 36.0378C36.958 36.0378 38.7344 35.2905 39.8025 34.0337C41.8692 31.588 41.8576 28.814 39.7561 26.9797C39.0479 26.357 37.8171 26.1305 36.8999 26.1305C36.4355 26.1305 36.0291 26.1872 35.7157 26.2777C34.9958 26.5042 33.4284 27.9308 33.4168 28.848C33.4168 29.199 33.6142 29.4707 33.9857 29.5952L34.0437 29.6179H34.1018C34.2527 29.6179 34.3456 29.5273 34.5198 29.3688C34.8797 29.0291 35.6344 28.3384 36.6677 28.3384C37.0509 28.3384 37.4572 28.4403 37.852 28.6328C38.1887 28.8027 38.2583 29.2103 38.27 29.4481C38.3048 30.2633 37.7707 31.4408 36.8303 31.9956C36.3078 32.3013 35.5067 32.4938 34.7404 32.4938C34.2992 32.4938 33.8928 32.4372 33.5793 32.3127C32.4647 31.9051 31.6984 31.0332 31.3966 29.8443C31.025 28.3611 31.4894 26.6967 32.5924 25.4965C33.6954 24.3076 35.228 23.6509 36.9115 23.6509C38.9666 23.6509 40.9404 24.6473 42.1827 26.323C43.7965 28.4856 44.0404 31.271 42.8329 33.762C41.6138 36.2982 39.1872 37.906 36.3542 38.0759C36.1568 38.0872 35.9479 38.0872 35.7389 38.0872C34.2295 38.0872 32.6621 37.7815 31.1527 37.4871C30.1542 37.2946 29.1209 37.0908 28.1108 36.9776C27.6928 36.9323 27.2632 36.9096 26.8452 36.9096C21.4812 36.9096 16.8602 40.7367 16.0823 45.7979C15.3277 50.7345 18.7179 55.3654 23.8033 56.3505C24.3258 56.4524 24.8715 56.509 25.3939 56.509C28.8306 56.509 31.8145 54.4257 32.9872 51.1987C34.2063 47.8586 32.7898 44.3825 29.7595 43.2843C29.0861 43.0465 28.2849 42.9219 27.4258 42.9219C26.2647 42.9219 25.1153 43.1484 24.1748 43.5447C22.9906 44.0542 21.9456 46.013 22.085 47.4849C22.2591 49.4551 23.2344 49.9419 24.1632 50.4062L24.2677 50.4628C24.5928 50.6213 25.1966 50.8138 25.8351 50.8138C26.822 50.8138 27.4722 50.3722 27.658 49.5683L27.6696 49.5343C27.8089 48.2435 26.7059 47.7001 25.9745 47.3264C25.7423 47.2132 25.3475 47.0207 25.3243 46.9188C25.3243 46.7716 25.6378 46.6697 26.079 46.6697C27.1123 46.6697 28.5055 47.1792 28.8771 47.9039C29.3415 48.8323 29.4576 50.3835 28.7494 51.4252C27.9482 52.5914 26.8801 53.1802 25.5449 53.1802C24.5464 53.1802 23.4202 52.8292 22.2939 52.1838C19.6468 50.6439 18.7295 47.1113 20.2389 44.3033C21.7483 41.4953 24.2909 40.1026 27.5419 40.2951C31.0947 40.4989 33.7187 42.4124 35.1467 45.8318C35.4718 46.6244 35.7157 47.4736 35.9479 48.2888C36.2497 49.3758 36.5748 50.4967 37.0973 51.5158C39.013 55.2182 42.3917 57.2563 46.6179 57.2563C46.7688 57.2563 46.9314 57.2563 47.0823 57.245C51.4711 57.0978 54.6407 54.9239 56.2314 50.961C57.8336 46.9528 56.0224 42.2992 52.098 40.363Z" fill="white"/>
</svg>
